<?xml version="1.0" encoding="UTF-8" standalone="no"?>
<!-- Created with Inkscape (http://www.inkscape.org/) -->

<svg
   version="1.1"
   id="svg18"
   width="7.558197"
   height="21.760607"
   viewBox="0 0 7.558197 21.760607"
   sodipodi:docname="carnet.pdf"
   xmlns:inkscape="http://www.inkscape.org/namespaces/inkscape"
   xmlns:sodipodi="http://sodipodi.sourceforge.net/DTD/sodipodi-0.dtd"
   xmlns="http://www.w3.org/2000/svg"
   xmlns:svg="http://www.w3.org/2000/svg">
  <defs
     id="defs22">
    <clipPath
       clipPathUnits="userSpaceOnUse"
       id="clipPath938">
      <path
         d="m 23.01,185.18 h 5.669 v 16.321 H 23.01 Z"
         id="path936" />
    </clipPath>
  </defs>
  <sodipodi:namedview
     id="namedview20"
     pagecolor="#ffffff"
     bordercolor="#000000"
     borderopacity="0.25"
     inkscape:showpageshadow="2"
     inkscape:pageopacity="0.0"
     inkscape:pagecheckerboard="0"
     inkscape:deskcolor="#d1d1d1"
     showgrid="false" />
  <g
     id="g26"
     inkscape:groupmode="layer"
     inkscape:label="Page 1"
     transform="matrix(1.3333333,0,0,-1.3333333,-30.680469,268.66799)">
    <g
       id="g932">
      <g
         id="g934"
         clip-path="url(#clipPath938)">
        <g
           id="g940"
           transform="translate(24.3754,196.8979)">
          <path
             d="M 0,0 C 0.012,-0.076 0.02,-0.152 0.036,-0.227 0.087,-0.476 0.141,-0.724 0.194,-0.973 0.199,-0.994 0.2,-1.016 0.203,-1.038 0.219,-1.131 0.212,-1.134 0.12,-1.129 -0.072,-1.118 -0.266,-1.113 -0.456,-1.106 -0.209,-0.78 -0.087,-0.399 0,0 m 0.553,-0.983 c 0.104,-0.02 0.209,-0.028 0.314,-0.034 0.106,-0.001 0.212,0.014 0.316,-0.01 0.052,-0.013 0.103,-0.037 0.155,-0.049 0.052,-0.01 0.105,-0.011 0.158,-0.01 0.106,0.005 0.212,0.013 0.318,0.013 L 1.795,-1.332 C 1.691,-1.316 1.587,-1.293 1.483,-1.274 1.43,-1.265 1.378,-1.259 1.325,-1.261 1.272,-1.265 1.218,-1.281 1.165,-1.287 1.058,-1.296 0.955,-1.266 0.85,-1.253 0.746,-1.243 0.64,-1.237 0.534,-1.241 Z M 0.945,0.632 C 0.951,0.55 1.004,0.449 1.078,0.362 1.114,0.317 1.16,0.278 1.211,0.247 1.263,0.217 1.323,0.201 1.379,0.178 1.488,0.13 1.582,0.053 1.69,-0.004 1.798,-0.057 1.913,-0.106 2.027,-0.134 L 1.942,-0.379 1.588,-0.218 C 1.47,-0.168 1.344,-0.127 1.241,-0.043 1.19,-0.001 1.147,0.053 1.099,0.098 1.05,0.143 0.997,0.182 0.946,0.227 0.844,0.312 0.732,0.416 0.69,0.583 Z m -1.652,-2.559 c 0.264,-0.06 0.531,-0.045 0.797,-0.009 0.058,0.008 0.115,0.018 0.184,0.029 0,-0.015 0,-0.029 0,-0.045 0.003,0 0.945,0.029 1.17,0.119 0.225,0.09 0.402,-0.126 0.651,-0.153 v 0.045 c 0.137,-0.038 0.172,0.052 0.216,0.15 0.06,0.132 0.167,0.23 0.281,0.317 0.023,0.017 0.052,0.032 0.063,0.054 0.015,0.031 0.028,0.074 0.018,0.103 C 2.666,-1.296 2.619,-1.278 2.59,-1.279 2.516,-1.281 2.443,-1.294 2.37,-1.302 2.345,-1.304 2.319,-1.304 2.291,-1.306 c 0,0.076 -0.003,0.147 10e-4,0.218 0.004,0.065 0.017,0.13 0.021,0.196 0.003,0.05 0.026,0.076 0.069,0.099 0.148,0.08 0.294,0.164 0.439,0.249 0.042,0.025 0.083,0.056 0.115,0.093 0.109,0.125 0.246,0.142 0.413,0.112 0.099,-0.054 0.289,0.022 0.289,0.022 0.069,0.025 0.141,0.041 0.21,0.064 0.051,0.016 0.096,0.041 0.095,0.106 0,0.012 0.009,0.028 0.018,0.034 0.065,0.037 0.088,0.086 0.099,0.166 0.008,0.057 0.059,0.119 0.071,0.188 0.005,0.03 0.018,0.06 0.027,0.09 C 4.164,0.35 4.164,0.378 4.177,0.386 4.242,0.43 4.26,0.461 4.249,0.537 4.241,0.597 4.203,0.619 4.147,0.597 4.112,0.584 4.035,0.555 4.035,0.555 4.035,0.555 3.711,0.458 3.657,0.461 3.491,0.47 3.338,0.426 3.202,0.327 3.078,0.235 2.954,0.142 2.828,0.052 2.718,-0.028 2.593,-0.043 2.457,-0.033 2.475,0.041 2.49,0.108 2.508,0.175 2.555,0.346 2.592,0.519 2.557,0.698 2.55,0.736 2.547,0.773 2.538,0.81 2.507,0.935 2.481,1.062 2.441,1.184 L 2.464,1.057 C 2.371,1.051 2.279,1.039 2.186,1.042 2.093,1.048 2.002,1.051 1.91,1.07 1.865,1.079 1.819,1.081 1.774,1.091 1.729,1.102 1.684,1.113 1.639,1.12 1.592,1.125 1.548,1.137 1.501,1.145 1.454,1.154 1.407,1.162 1.363,1.18 1.182,1.243 1.035,1.372 0.904,1.501 0.768,1.633 0.654,1.768 0.545,1.938 L 0.661,1.996 C 0.62,1.99 0.578,1.988 0.538,1.98 0.496,1.971 0.452,1.965 0.409,1.956 0.485,1.784 0.544,1.62 0.595,1.445 0.646,1.263 0.702,1.071 0.675,0.872 0.657,0.773 0.628,0.678 0.589,0.586 0.562,0.492 0.518,0.403 0.473,0.315 0.382,0.135 0.227,-0.002 0.063,-0.114 l -0.126,0.228 0.105,0.061 0.053,0.03 c 0.017,0.012 0.031,0.026 0.047,0.038 0.03,0.027 0.063,0.05 0.093,0.078 L 0.312,0.415 C 0.342,0.444 0.352,0.486 0.371,0.521 0.38,0.54 0.39,0.558 0.397,0.577 L 0.411,0.638 C 0.43,0.718 0.416,0.804 0.414,0.885 0.407,1.047 0.403,1.216 0.365,1.384 0.324,1.548 0.259,1.717 0.172,1.856 L 0.286,1.919 C 0.18,1.869 0.079,1.804 -0.012,1.731 -0.148,1.623 -0.242,1.48 -0.305,1.319 -0.334,1.243 -0.352,1.16 -0.395,1.093 -0.507,0.916 -0.628,0.744 -0.75,0.573 -0.855,0.425 -0.955,0.275 -1.017,0.103 -1.122,-0.191 -1.17,-0.497 -1.222,-0.803 -1.255,-0.997 -1.3,-1.189 -1.336,-1.382 c -0.015,-0.078 -0.03,-0.157 -0.029,-0.235 10e-4,-0.087 0.052,-0.13 0.136,-0.149 0.069,-0.015 0.137,-0.037 0.205,-0.059 0.106,-0.033 0.209,-0.078 0.317,-0.102"
             style="fill:#231f20;fill-opacity:1;fill-rule:nonzero;stroke:none"
             id="path942" />
        </g>
        <g
           id="g944"
           transform="translate(24.6952,198.8723)">
          <path
             d="M 0,0 C 0.05,0.014 0.102,0.02 0.152,0.034 0.23,0.056 0.307,0.082 0.385,0.106 0.38,0.087 0.39,0.059 0.375,0.039 L 0.457,0.08 C 0.518,-0.054 0.626,-0.193 0.746,-0.299 0.869,-0.408 1.015,-0.477 1.152,-0.557 1.186,-0.579 1.22,-0.602 1.256,-0.621 1.293,-0.639 1.327,-0.665 1.367,-0.675 1.445,-0.7 1.527,-0.716 1.609,-0.717 1.767,-0.725 1.923,-0.695 2.076,-0.666 2.025,-0.529 1.967,-0.394 1.926,-0.253 1.896,-0.149 1.904,-0.033 1.898,0.078 1.897,0.107 1.9,0.147 1.95,0.139 2.032,0.125 2.114,0.101 2.196,0.097 2.387,0.089 2.578,0.084 2.769,0.089 2.868,0.092 2.926,0.151 2.936,0.224 2.953,0.352 2.933,0.393 2.822,0.441 2.766,0.465 2.705,0.479 2.632,0.503 2.652,0.55 2.659,0.608 2.691,0.634 2.782,0.708 2.82,0.797 2.813,0.909 2.81,0.948 2.828,0.97 2.865,0.986 2.953,1.025 3.04,1.068 3.126,1.114 3.168,1.136 3.192,1.173 3.191,1.226 3.189,1.313 3.127,1.356 3.065,1.395 2.953,1.467 2.88,1.562 2.85,1.695 2.832,1.775 2.802,1.858 2.756,1.925 2.702,2.006 2.622,2.07 2.56,2.146 2.515,2.201 2.453,2.253 2.473,2.338 2.499,2.445 2.466,2.523 2.36,2.55 2.228,2.583 2.092,2.609 1.956,2.62 1.748,2.638 1.539,2.63 1.331,2.59 1.17,2.56 1.012,2.527 0.87,2.441 0.684,2.328 0.544,2.18 0.488,1.961 0.457,1.842 0.409,1.728 0.367,1.612 0.316,1.473 0.213,1.369 0.124,1.255 0.055,1.166 0.007,1.067 -0.012,0.954 -0.037,0.809 -0.067,0.665 -0.094,0.52 -0.118,0.393 -0.148,0.267 -0.164,0.139 -0.179,0.033 -0.1,-0.028 0,0"
             style="fill:#231f20;fill-opacity:1;fill-rule:nonzero;stroke:none"
             id="path946" />
        </g>
        <g
           id="g948"
           transform="translate(26.1043,192.4851)">
          <path
             d="M 0,0 C -0.028,-0.162 -0.04,-0.328 -0.089,-0.486 -0.116,-0.565 -0.152,-0.641 -0.177,-0.721 -0.2,-0.8 -0.214,-0.881 -0.226,-0.963 -0.249,-1.126 -0.266,-1.291 -0.292,-1.454 l -0.255,0.051 c 0.041,0.16 0.091,0.319 0.136,0.478 0.022,0.079 0.041,0.16 0.052,0.242 0.009,0.082 0.007,0.167 0.014,0.249 0.018,0.165 0.074,0.322 0.113,0.482 0.036,0.162 0.069,0.323 0.09,0.487 L 0.112,0.481 C 0.066,0.323 0.032,0.162 0,0 m -0.897,-0.251 c -0.061,-0.086 -0.134,-0.165 -0.195,-0.25 -0.062,-0.086 -0.114,-0.176 -0.171,-0.265 -0.11,-0.181 -0.219,-0.363 -0.371,-0.529 l -0.184,0.184 c 0.141,0.131 0.274,0.289 0.399,0.451 0.032,0.04 0.06,0.083 0.088,0.126 0.029,0.043 0.057,0.085 0.081,0.131 0.048,0.092 0.084,0.19 0.128,0.284 0.089,0.186 0.211,0.354 0.312,0.535 0.1,0.18 0.194,0.365 0.273,0.554 L -0.303,0.857 C -0.407,0.673 -0.504,0.489 -0.6,0.303 -0.695,0.117 -0.777,-0.078 -0.897,-0.251 M 2.564,-6.975 C 2.542,-6.898 2.493,-6.871 2.397,-6.873 2.234,-6.877 2.07,-6.892 1.908,-6.877 1.743,-6.863 1.57,-6.844 1.419,-6.781 1.143,-6.665 0.876,-6.52 0.73,-6.233 c -0.038,0.075 -0.085,0.148 -0.105,0.228 -0.028,0.111 -0.042,0.227 -0.048,0.342 -0.021,0.392 -0.038,0.785 -0.054,1.177 -0.01,0.244 -0.043,0.483 -0.099,0.721 -0.039,0.167 -0.036,0.339 0.036,0.499 0.061,0.138 0.065,0.276 0.01,0.412 -0.051,0.129 -0.038,0.254 -0.005,0.38 0.027,0.102 0.063,0.201 0.092,0.302 0.066,0.234 0.065,0.473 0.048,0.712 -0.026,0.35 -0.051,0.7 -0.082,1.05 C 0.491,-0.055 0.46,0.3 0.41,0.653 L 0.269,1.18 C 0.228,1.241 0.232,1.295 0.244,1.355 0.289,1.572 0.365,1.785 0.368,2.01 0.37,2.116 0.367,2.221 0.366,2.327 c 0,0.031 0,0.065 0,0.1 L -1.455,2.461 C -1.454,2.347 -1.452,2.241 -1.457,2.136 -1.459,2.073 -1.465,2.005 -1.49,1.95 -1.527,1.872 -1.58,1.801 -1.633,1.733 -1.832,1.48 -2.033,1.23 -2.235,0.98 -2.351,0.837 -2.459,0.688 -2.486,0.5 c -0.041,-0.295 -0.009,-0.58 0.151,-0.841 0.073,-0.119 0.132,-0.242 0.086,-0.388 -0.028,-0.093 -0.055,-0.187 -0.082,-0.28 -0.05,-0.17 -0.098,-0.341 -0.098,-0.52 0,-0.131 10e-4,-0.261 0,-0.392 l 2.685,-0.003 c -0.946,-0.495 -2.685,0.003 -2.685,0.003 -0.002,-0.147 -0.008,-0.294 -0.007,-0.441 10e-4,-0.297 0.008,-0.594 0.008,-0.892 0,-0.091 -0.038,-0.172 -0.089,-0.248 -0.085,-0.125 -0.172,-0.249 -0.247,-0.379 -0.105,-0.181 -0.171,-0.373 -0.17,-0.589 0.001,-0.244 0.018,-0.485 0.071,-0.724 l 0.065,-0.628 c -0.014,-0.201 -0.029,-0.401 -0.042,-0.602 -0.013,-0.186 -0.051,-0.369 -0.021,-0.559 0.042,-0.256 0.21,-0.387 0.469,-0.289 0.033,0.013 0.069,0.021 0.104,0.021 0.222,0.004 0.443,0.006 0.664,0.006 0.274,0 0.547,-0.006 0.821,-0.005 0.122,0 0.233,0.029 0.297,0.15 0.033,0.062 0.014,0.112 -0.055,0.123 -0.059,0.009 -0.119,0.016 -0.178,0.013 -0.191,-0.012 -0.378,0.007 -0.565,0.042 -0.284,0.055 -0.561,0.13 -0.819,0.267 -0.16,0.085 -0.249,0.221 -0.225,0.377 0.016,0.109 0.042,0.219 0.077,0.324 0.09,0.269 0.19,0.535 0.283,0.803 0.099,0.289 0.158,0.588 0.19,0.891 0.022,0.202 0.043,0.404 0.092,0.601 0.024,0.097 0.053,0.187 0.153,0.235 0.063,0.032 0.092,0.089 0.101,0.159 0.007,0.065 0.02,0.13 0.026,0.196 0.007,0.073 0.033,0.137 0.078,0.196 0.051,0.068 0.1,0.138 0.147,0.209 0.077,0.117 0.151,0.236 0.23,0.361 0.027,-0.051 0.049,-0.097 0.074,-0.14 0.096,-0.165 0.221,-0.306 0.36,-0.434 0.185,-0.172 0.231,-0.375 0.166,-0.613 -0.069,-0.25 -0.123,-0.502 -0.143,-0.762 -0.025,-0.316 0.033,-0.615 0.193,-0.889 0.156,-0.265 0.319,-0.525 0.431,-0.814 0.079,-0.203 0.122,-0.411 0.09,-0.63 -0.017,-0.117 -0.037,-0.233 -0.044,-0.35 -0.009,-0.156 0.066,-0.227 0.223,-0.224 0.034,10e-4 0.068,0.005 0.101,0.01 0.167,0.025 0.334,0.058 0.505,0.026 0.094,-0.018 0.186,-0.045 0.281,-0.054 0.2,-0.018 0.401,-0.032 0.602,-0.04 0.163,-0.006 0.327,-0.004 0.49,0 0.048,10e-4 0.1,0.015 0.143,0.037 0.069,0.036 0.09,0.117 0.063,0.205"
             style="fill:#231f20;fill-opacity:1;fill-rule:nonzero;stroke:none"
             id="path950" />
        </g>
      </g>
    </g>
  </g>
</svg>
